<?xml version="1.0"?>
<!-- Generated by SVGo and Plotinum VG -->
<svg width="740pt" height="370pt" viewBox="0 0 740 370"
	xmlns="http://www.w3.org/2000/svg"
	xmlns:xlink="http://www.w3.org/1999/xlink">
<g transform="scale(1, -1) translate(0, -370)">
<path d="M0,0L740,0L740,370L0,370Z" style="fill:#FFFFFF" />
<text x="394.64" y="-3.8613" transform="scale(1, -1)"
	style="font-family:Times;font-weight:normal;font-style:normal;font-size:12px">lib</text>
<text x="86.666" y="-15.602" transform="scale(1, -1)"
	style="font-family:Times;font-weight:normal;font-style:normal;font-size:10px">sync_map</text>
<text x="217.3" y="-15.602" transform="scale(1, -1)"
	style="font-family:Times;font-weight:normal;font-style:normal;font-size:10px">concurrent-mapv1</text>
<text x="364.32" y="-15.602" transform="scale(1, -1)"
	style="font-family:Times;font-weight:normal;font-style:normal;font-size:10px">concurrent-mapv2</text>
<text x="510.78" y="-15.602" transform="scale(1, -1)"
	style="font-family:Times;font-weight:normal;font-style:normal;font-size:10px">cmap_non-generic</text>
<text x="666.96" y="-15.602" transform="scale(1, -1)"
	style="font-family:Times;font-weight:normal;font-style:normal;font-size:10px">cmap_generic</text>
<g transform="rotate(90)">
<text x="187.11" y="11.555" transform="scale(1, -1)"
	style="font-family:Times;font-weight:normal;font-style:normal;font-size:12px">ns/op</text>
</g>
<text x="25.416" y="-25.509" transform="scale(1, -1)"
	style="font-family:Times;font-weight:normal;font-style:normal;font-size:10px">0</text>
<text x="15.416" y="-175.22" transform="scale(1, -1)"
	style="font-family:Times;font-weight:normal;font-style:normal;font-size:10px">200</text>
<text x="15.416" y="-324.93" transform="scale(1, -1)"
	style="font-family:Times;font-weight:normal;font-style:normal;font-size:10px">400</text>
<path d="M32.916,30.23L40.916,30.23" style="fill:none;stroke:#000000;stroke-width:0.5" />
<path d="M32.916,179.94L40.916,179.94" style="fill:none;stroke:#000000;stroke-width:0.5" />
<path d="M32.916,329.65L40.916,329.65" style="fill:none;stroke:#000000;stroke-width:0.5" />
<path d="M36.916,105.09L40.916,105.09" style="fill:none;stroke:#000000;stroke-width:0.5" />
<path d="M36.916,254.8L40.916,254.8" style="fill:none;stroke:#000000;stroke-width:0.5" />
<path d="M40.916,30.23L40.916,370" style="fill:none;stroke:#000000;stroke-width:0.5" />
<path d="M61.939,30.23L61.939,198.43L91.939,198.43L91.939,30.23Z" style="fill:#F15A60" />
<path d="M208.95,30.23L208.95,105.54L238.95,105.54L238.95,30.23Z" style="fill:#F15A60" />
<path d="M355.97,30.23L355.97,100.21L385.97,100.21L385.97,30.23Z" style="fill:#F15A60" />
<path d="M502.98,30.23L502.98,96.702L532.98,96.702L532.98,30.23Z" style="fill:#F15A60" />
<path d="M650,30.23L650,78.729L680,78.729L680,30.23Z" style="fill:#F15A60" />
<path d="M91.939,30.23L91.939,37.783L121.94,37.783L121.94,30.23Z" style="fill:#7AC36A" />
<path d="M238.95,30.23L238.95,68.542L268.95,68.542L268.95,30.23Z" style="fill:#7AC36A" />
<path d="M385.97,30.23L385.97,71.858L415.97,71.858L415.97,30.23Z" style="fill:#7AC36A" />
<path d="M532.98,30.23L532.98,58.174L562.98,58.174L562.98,30.23Z" style="fill:#7AC36A" />
<path d="M680,30.23L680,61.034L710,61.034L710,30.23Z" style="fill:#7AC36A" />
<path d="M121.94,30.23L121.94,296.72L151.94,296.72L151.94,30.23Z" style="fill:#5A9BD4" />
<path d="M268.95,30.23L268.95,217.22L298.95,217.22L298.95,30.23Z" style="fill:#5A9BD4" />
<path d="M415.97,30.23L415.97,188.48L445.97,188.48L445.97,30.23Z" style="fill:#5A9BD4" />
<path d="M562.98,30.23L562.98,370L592.98,370L592.98,30.23Z" style="fill:#5A9BD4" />
<path d="M710,30.23L710,322.02L740,322.02L740,30.23Z" style="fill:#5A9BD4" />
<path d="M720,358.22L720,370L740,370L740,358.22Z" style="fill:#F15A60" />
<text x="692.34" y="-358.45" transform="scale(1, -1)"
	style="font-family:Times;font-weight:normal;font-style:normal;font-size:12px">write</text>
<path d="M720,346.45L720,358.22L740,358.22L740,346.45Z" style="fill:#7AC36A" />
<text x="696.35" y="-346.67" transform="scale(1, -1)"
	style="font-family:Times;font-weight:normal;font-style:normal;font-size:12px">read</text>
<path d="M720,334.67L720,346.45L740,346.45L740,334.67Z" style="fill:#5A9BD4" />
<text x="633.04" y="-334.89" transform="scale(1, -1)"
	style="font-family:Times;font-weight:normal;font-style:normal;font-size:12px">read_while_write</text>
</g>
</svg>
