<?xml version="1.0"?>
<!-- Generated by SVGo and Plotinum VG -->
<svg width="380pt" height="190pt" viewBox="0 0 380 190"
	xmlns="http://www.w3.org/2000/svg"
	xmlns:xlink="http://www.w3.org/1999/xlink">
<g transform="scale(1, -1) translate(0, -190)">
<path d="M0,0L380,0L380,190L0,190Z" style="fill:#FFFFFF" />
<text x="214.64" y="-3.8613" transform="scale(1, -1)"
	style="font-family:Times;font-weight:normal;font-style:normal;font-size:12px">lib</text>
<text x="56.666" y="-15.602" transform="scale(1, -1)"
	style="font-family:Times;font-weight:normal;font-style:normal;font-size:10px">math_rand</text>
<text x="196.81" y="-15.602" transform="scale(1, -1)"
	style="font-family:Times;font-weight:normal;font-style:normal;font-size:10px">crypto_rand</text>
<text x="347.79" y="-15.602" transform="scale(1, -1)"
	style="font-family:Times;font-weight:normal;font-style:normal;font-size:10px">fastrand</text>
<g transform="rotate(90)">
<text x="97.113" y="11.555" transform="scale(1, -1)"
	style="font-family:Times;font-weight:normal;font-style:normal;font-size:12px">ns/op</text>
</g>
<text x="25.416" y="-25.509" transform="scale(1, -1)"
	style="font-family:Times;font-weight:normal;font-style:normal;font-size:10px">0</text>
<text x="15.416" y="-90.127" transform="scale(1, -1)"
	style="font-family:Times;font-weight:normal;font-style:normal;font-size:10px">200</text>
<text x="15.416" y="-154.75" transform="scale(1, -1)"
	style="font-family:Times;font-weight:normal;font-style:normal;font-size:10px">400</text>
<path d="M32.916,30.23L40.916,30.23" style="fill:none;stroke:#000000;stroke-width:0.5" />
<path d="M32.916,94.849L40.916,94.849" style="fill:none;stroke:#000000;stroke-width:0.5" />
<path d="M32.916,159.47L40.916,159.47" style="fill:none;stroke:#000000;stroke-width:0.5" />
<path d="M36.916,62.54L40.916,62.54" style="fill:none;stroke:#000000;stroke-width:0.5" />
<path d="M36.916,127.16L40.916,127.16" style="fill:none;stroke:#000000;stroke-width:0.5" />
<path d="M40.916,30.23L40.916,190" style="fill:none;stroke:#000000;stroke-width:0.5" />
<path d="M63.048,30.23L63.048,71.78L93.048,71.78L93.048,30.23Z" style="fill:#F15A60" />
<path d="M205.97,30.23L205.97,190L235.97,190L235.97,30.23Z" style="fill:#F15A60" />
<path d="M348.9,30.23L348.9,30.862L378.9,30.862L378.9,30.23Z" style="fill:#F15A60" />
<path d="M360,190L360,190L380,190L380,190Z" style="fill:#F15A60" />
</g>
</svg>
