<?xml version="1.0"?>
<!-- Generated by SVGo and Plotinum VG -->
<svg width="470pt" height="235pt" viewBox="0 0 470 235"
	xmlns="http://www.w3.org/2000/svg"
	xmlns:xlink="http://www.w3.org/1999/xlink">
<g transform="scale(1, -1) translate(0, -235)">
<path d="M0,0L470,0L470,235L0,235Z" style="fill:#FFFFFF" />
<text x="274.64" y="-3.8613" transform="scale(1, -1)"
	style="font-family:Times;font-weight:normal;font-style:normal;font-size:12px">lib</text>
<text x="86.666" y="-15.602" transform="scale(1, -1)"
	style="font-family:Times;font-weight:normal;font-style:normal;font-size:10px">math_rand</text>
<text x="256.81" y="-15.602" transform="scale(1, -1)"
	style="font-family:Times;font-weight:normal;font-style:normal;font-size:10px">crypto_rand</text>
<text x="437.79" y="-15.602" transform="scale(1, -1)"
	style="font-family:Times;font-weight:normal;font-style:normal;font-size:10px">fastrand</text>
<g transform="rotate(90)">
<text x="119.61" y="11.555" transform="scale(1, -1)"
	style="font-family:Times;font-weight:normal;font-style:normal;font-size:12px">ns/op</text>
</g>
<text x="25.416" y="-25.509" transform="scale(1, -1)"
	style="font-family:Times;font-weight:normal;font-style:normal;font-size:10px">0</text>
<text x="15.416" y="-123.06" transform="scale(1, -1)"
	style="font-family:Times;font-weight:normal;font-style:normal;font-size:10px">200</text>
<text x="15.416" y="-220.62" transform="scale(1, -1)"
	style="font-family:Times;font-weight:normal;font-style:normal;font-size:10px">400</text>
<path d="M32.916,30.23L40.916,30.23" style="fill:none;stroke:#000000;stroke-width:0.5" />
<path d="M32.916,127.79L40.916,127.79" style="fill:none;stroke:#000000;stroke-width:0.5" />
<path d="M32.916,225.34L40.916,225.34" style="fill:none;stroke:#000000;stroke-width:0.5" />
<path d="M36.916,79.008L40.916,79.008" style="fill:none;stroke:#000000;stroke-width:0.5" />
<path d="M36.916,176.56L40.916,176.56" style="fill:none;stroke:#000000;stroke-width:0.5" />
<path d="M40.916,30.23L40.916,235" style="fill:none;stroke:#000000;stroke-width:0.5" />
<path d="M63.048,30.23L63.048,36.889L93.048,36.889L93.048,30.23Z" style="fill:#F15A60" />
<path d="M235.97,30.23L235.97,204.07L265.97,204.07L265.97,30.23Z" style="fill:#F15A60" />
<path d="M408.9,30.23L408.9,35.22L438.9,35.22L438.9,30.23Z" style="fill:#F15A60" />
<path d="M93.048,30.23L93.048,84.715L123.05,84.715L123.05,30.23Z" style="fill:#7AC36A" />
<path d="M265.97,30.23L265.97,235L295.97,235L295.97,30.23Z" style="fill:#7AC36A" />
<path d="M438.9,30.23L438.9,31.38L468.9,31.38L468.9,30.23Z" style="fill:#7AC36A" />
<path d="M450,223.22L450,235L470,235L470,223.22Z" style="fill:#F15A60" />
<text x="425" y="-223.45" transform="scale(1, -1)"
	style="font-family:Times;font-weight:normal;font-style:normal;font-size:12px">sync</text>
<path d="M450,211.45L450,223.22L470,223.22L470,211.45Z" style="fill:#7AC36A" />
<text x="419.68" y="-211.67" transform="scale(1, -1)"
	style="font-family:Times;font-weight:normal;font-style:normal;font-size:12px">async</text>
</g>
</svg>
