<?xml version="1.0"?>
<!-- Generated by SVGo and Plotinum VG -->
<svg width="410pt" height="205pt" viewBox="0 0 410 205"
	xmlns="http://www.w3.org/2000/svg"
	xmlns:xlink="http://www.w3.org/1999/xlink">
<g transform="scale(1, -1) translate(0, -205)">
<path d="M0,0L410,0L410,205L0,205Z" style="fill:#FFFFFF" />
<text x="129.98" y="-193.45" transform="scale(1, -1)"
	style="font-family:Times;font-weight:normal;font-style:normal;font-size:12px">BenchmarkEncoder/size=small</text>
<text x="225.89" y="-3.8613" transform="scale(1, -1)"
	style="font-family:Times;font-weight:normal;font-style:normal;font-size:12px">lib</text>
<text x="56.666" y="-15.602" transform="scale(1, -1)"
	style="font-family:Times;font-weight:normal;font-style:normal;font-size:10px">encoding_json</text>
<text x="153.99" y="-15.602" transform="scale(1, -1)"
	style="font-family:Times;font-weight:normal;font-style:normal;font-size:10px">goccy_go-json</text>
<text x="266.3" y="-15.602" transform="scale(1, -1)"
	style="font-family:Times;font-weight:normal;font-style:normal;font-size:10px">jettison</text>
<text x="347.23" y="-15.602" transform="scale(1, -1)"
	style="font-family:Times;font-weight:normal;font-style:normal;font-size:10px">segmentio_json</text>
<g transform="rotate(90)">
<text x="96.905" y="11.555" transform="scale(1, -1)"
	style="font-family:Times;font-weight:normal;font-style:normal;font-size:12px">ns/op</text>
</g>
<text x="25.416" y="-25.509" transform="scale(1, -1)"
	style="font-family:Times;font-weight:normal;font-style:normal;font-size:10px">0</text>
<text x="15.416" y="-100.48" transform="scale(1, -1)"
	style="font-family:Times;font-weight:normal;font-style:normal;font-size:10px">300</text>
<text x="15.416" y="-175.44" transform="scale(1, -1)"
	style="font-family:Times;font-weight:normal;font-style:normal;font-size:10px">600</text>
<path d="M32.916,30.23L40.916,30.23" style="fill:none;stroke:#000000;stroke-width:0.5" />
<path d="M32.916,105.2L40.916,105.2" style="fill:none;stroke:#000000;stroke-width:0.5" />
<path d="M32.916,180.16L40.916,180.16" style="fill:none;stroke:#000000;stroke-width:0.5" />
<path d="M36.916,55.219L40.916,55.219" style="fill:none;stroke:#000000;stroke-width:0.5" />
<path d="M36.916,80.208L40.916,80.208" style="fill:none;stroke:#000000;stroke-width:0.5" />
<path d="M36.916,130.19L40.916,130.19" style="fill:none;stroke:#000000;stroke-width:0.5" />
<path d="M36.916,155.17L40.916,155.17" style="fill:none;stroke:#000000;stroke-width:0.5" />
<path d="M40.916,30.23L40.916,189.58" style="fill:none;stroke:#000000;stroke-width:0.5" />
<path d="M70.829,30.23L70.829,189.58L100.83,189.58L100.83,30.23Z" style="fill:#F15A60" />
<path d="M168.42,30.23L168.42,131.46L198.42,131.46L198.42,30.23Z" style="fill:#F15A60" />
<path d="M266.02,30.23L266.02,120.17L296.02,120.17L296.02,30.23Z" style="fill:#F15A60" />
<path d="M363.61,30.23L363.61,109.52L393.61,109.52L393.61,30.23Z" style="fill:#F15A60" />
<path d="M390,189.58L390,189.58L410,189.58L410,189.58Z" style="fill:#F15A60" />
</g>
</svg>
