<?xml version="1.0"?>
<!-- Generated by SVGo and Plotinum VG -->
<svg width="380pt" height="190pt" viewBox="0 0 380 190"
	xmlns="http://www.w3.org/2000/svg"
	xmlns:xlink="http://www.w3.org/1999/xlink">
<g transform="scale(1, -1) translate(0, -190)">
<path d="M0,0L380,0L380,190L0,190Z" style="fill:#FFFFFF" />
<text x="114.65" y="-178.45" transform="scale(1, -1)"
	style="font-family:Times;font-weight:normal;font-style:normal;font-size:12px">BenchmarkDecoder/size=small</text>
<text x="213.39" y="-3.8613" transform="scale(1, -1)"
	style="font-family:Times;font-weight:normal;font-style:normal;font-size:12px">lib</text>
<text x="61.666" y="-15.602" transform="scale(1, -1)"
	style="font-family:Times;font-weight:normal;font-style:normal;font-size:10px">encoding_json</text>
<text x="190.28" y="-15.602" transform="scale(1, -1)"
	style="font-family:Times;font-weight:normal;font-style:normal;font-size:10px">goccy_go-json</text>
<text x="317.23" y="-15.602" transform="scale(1, -1)"
	style="font-family:Times;font-weight:normal;font-style:normal;font-size:10px">segmentio_json</text>
<g transform="rotate(90)">
<text x="89.405" y="11.555" transform="scale(1, -1)"
	style="font-family:Times;font-weight:normal;font-style:normal;font-size:12px">ns/op</text>
</g>
<text x="30.416" y="-25.509" transform="scale(1, -1)"
	style="font-family:Times;font-weight:normal;font-style:normal;font-size:10px">0</text>
<text x="20.416" y="-68.78" transform="scale(1, -1)"
	style="font-family:Times;font-weight:normal;font-style:normal;font-size:10px">500</text>
<text x="15.416" y="-112.05" transform="scale(1, -1)"
	style="font-family:Times;font-weight:normal;font-style:normal;font-size:10px">1000</text>
<text x="15.416" y="-155.32" transform="scale(1, -1)"
	style="font-family:Times;font-weight:normal;font-style:normal;font-size:10px">1500</text>
<path d="M37.916,30.23L45.916,30.23" style="fill:none;stroke:#000000;stroke-width:0.5" />
<path d="M37.916,73.502L45.916,73.502" style="fill:none;stroke:#000000;stroke-width:0.5" />
<path d="M37.916,116.77L45.916,116.77" style="fill:none;stroke:#000000;stroke-width:0.5" />
<path d="M37.916,160.04L45.916,160.04" style="fill:none;stroke:#000000;stroke-width:0.5" />
<path d="M41.916,38.885L45.916,38.885" style="fill:none;stroke:#000000;stroke-width:0.5" />
<path d="M41.916,47.539L45.916,47.539" style="fill:none;stroke:#000000;stroke-width:0.5" />
<path d="M41.916,56.193L45.916,56.193" style="fill:none;stroke:#000000;stroke-width:0.5" />
<path d="M41.916,64.848L45.916,64.848" style="fill:none;stroke:#000000;stroke-width:0.5" />
<path d="M41.916,82.156L45.916,82.156" style="fill:none;stroke:#000000;stroke-width:0.5" />
<path d="M41.916,90.81L45.916,90.81" style="fill:none;stroke:#000000;stroke-width:0.5" />
<path d="M41.916,99.465L45.916,99.465" style="fill:none;stroke:#000000;stroke-width:0.5" />
<path d="M41.916,108.12L45.916,108.12" style="fill:none;stroke:#000000;stroke-width:0.5" />
<path d="M41.916,125.43L45.916,125.43" style="fill:none;stroke:#000000;stroke-width:0.5" />
<path d="M41.916,134.08L45.916,134.08" style="fill:none;stroke:#000000;stroke-width:0.5" />
<path d="M41.916,142.74L45.916,142.74" style="fill:none;stroke:#000000;stroke-width:0.5" />
<path d="M41.916,151.39L45.916,151.39" style="fill:none;stroke:#000000;stroke-width:0.5" />
<path d="M41.916,168.7L45.916,168.7" style="fill:none;stroke:#000000;stroke-width:0.5" />
<path d="M45.916,30.23L45.916,174.58" style="fill:none;stroke:#000000;stroke-width:0.5" />
<path d="M75.829,30.23L75.829,174.58L105.83,174.58L105.83,30.23Z" style="fill:#F15A60" />
<path d="M204.72,30.23L204.72,68.318L234.72,68.318L234.72,30.23Z" style="fill:#F15A60" />
<path d="M333.61,30.23L333.61,66.397L363.61,66.397L363.61,30.23Z" style="fill:#F15A60" />
<path d="M360,174.58L360,174.58L380,174.58L380,174.58Z" style="fill:#F15A60" />
</g>
</svg>
