<?xml version="1.0"?>
<!-- Generated by SVGo and Plotinum VG -->
<svg width="410pt" height="205pt" viewBox="0 0 410 205"
	xmlns="http://www.w3.org/2000/svg"
	xmlns:xlink="http://www.w3.org/1999/xlink">
<g transform="scale(1, -1) translate(0, -205)">
<path d="M0,0L410,0L410,205L0,205Z" style="fill:#FFFFFF" />
<text x="131.09" y="-193.45" transform="scale(1, -1)"
	style="font-family:Times;font-weight:normal;font-style:normal;font-size:12px">BenchmarkEncoder/size=large</text>
<text x="242.14" y="-3.8613" transform="scale(1, -1)"
	style="font-family:Times;font-weight:normal;font-style:normal;font-size:12px">lib</text>
<text x="89.166" y="-15.602" transform="scale(1, -1)"
	style="font-family:Times;font-weight:normal;font-style:normal;font-size:10px">encoding_json</text>
<text x="175.65" y="-15.602" transform="scale(1, -1)"
	style="font-family:Times;font-weight:normal;font-style:normal;font-size:10px">goccy_go-json</text>
<text x="277.13" y="-15.602" transform="scale(1, -1)"
	style="font-family:Times;font-weight:normal;font-style:normal;font-size:10px">jettison</text>
<text x="347.23" y="-15.602" transform="scale(1, -1)"
	style="font-family:Times;font-weight:normal;font-style:normal;font-size:10px">segmentio_json</text>
<g transform="rotate(90)">
<text x="96.905" y="11.555" transform="scale(1, -1)"
	style="font-family:Times;font-weight:normal;font-style:normal;font-size:12px">ns/op</text>
</g>
<text x="45.416" y="-25.509" transform="scale(1, -1)"
	style="font-family:Times;font-weight:normal;font-style:normal;font-size:10px">0.00</text>
<text x="15.416" y="-177.45" transform="scale(1, -1)"
	style="font-family:Times;font-weight:normal;font-style:normal;font-size:10px">2500000.00</text>
<path d="M65.416,30.23L73.416,30.23" style="fill:none;stroke:#000000;stroke-width:0.5" />
<path d="M65.416,182.17L73.416,182.17" style="fill:none;stroke:#000000;stroke-width:0.5" />
<path d="M69.416,60.618L73.416,60.618" style="fill:none;stroke:#000000;stroke-width:0.5" />
<path d="M69.416,91.006L73.416,91.006" style="fill:none;stroke:#000000;stroke-width:0.5" />
<path d="M69.416,121.39L73.416,121.39" style="fill:none;stroke:#000000;stroke-width:0.5" />
<path d="M69.416,151.78L73.416,151.78" style="fill:none;stroke:#000000;stroke-width:0.5" />
<path d="M73.416,30.23L73.416,189.58" style="fill:none;stroke:#000000;stroke-width:0.5" />
<path d="M103.33,30.23L103.33,189.58L133.33,189.58L133.33,30.23Z" style="fill:#F15A60" />
<path d="M190.09,30.23L190.09,136.79L220.09,136.79L220.09,30.23Z" style="fill:#F15A60" />
<path d="M276.85,30.23L276.85,114.26L306.85,114.26L306.85,30.23Z" style="fill:#F15A60" />
<path d="M363.61,30.23L363.61,107.43L393.61,107.43L393.61,30.23Z" style="fill:#F15A60" />
<path d="M390,189.58L390,189.58L410,189.58L410,189.58Z" style="fill:#F15A60" />
</g>
</svg>
