<?xml version="1.0"?>
<!-- Generated by SVGo and Plotinum VG -->
<svg width="380pt" height="190pt" viewBox="0 0 380 190"
	xmlns="http://www.w3.org/2000/svg"
	xmlns:xlink="http://www.w3.org/1999/xlink">
<g transform="scale(1, -1) translate(0, -190)">
<path d="M0,0L380,0L380,190L0,190Z" style="fill:#FFFFFF" />
<text x="115.76" y="-178.45" transform="scale(1, -1)"
	style="font-family:Times;font-weight:normal;font-style:normal;font-size:12px">BenchmarkDecoder/size=large</text>
<text x="220.89" y="-3.8613" transform="scale(1, -1)"
	style="font-family:Times;font-weight:normal;font-style:normal;font-size:12px">lib</text>
<text x="76.666" y="-15.602" transform="scale(1, -1)"
	style="font-family:Times;font-weight:normal;font-style:normal;font-size:10px">encoding_json</text>
<text x="197.78" y="-15.602" transform="scale(1, -1)"
	style="font-family:Times;font-weight:normal;font-style:normal;font-size:10px">goccy_go-json</text>
<text x="317.23" y="-15.602" transform="scale(1, -1)"
	style="font-family:Times;font-weight:normal;font-style:normal;font-size:10px">segmentio_json</text>
<g transform="rotate(90)">
<text x="89.405" y="11.555" transform="scale(1, -1)"
	style="font-family:Times;font-weight:normal;font-style:normal;font-size:12px">ns/op</text>
</g>
<text x="45.416" y="-25.509" transform="scale(1, -1)"
	style="font-family:Times;font-weight:normal;font-style:normal;font-size:10px">0</text>
<text x="15.416" y="-84.646" transform="scale(1, -1)"
	style="font-family:Times;font-weight:normal;font-style:normal;font-size:10px">3000000</text>
<text x="15.416" y="-143.78" transform="scale(1, -1)"
	style="font-family:Times;font-weight:normal;font-style:normal;font-size:10px">6000000</text>
<path d="M52.916,30.23L60.916,30.23" style="fill:none;stroke:#000000;stroke-width:0.5" />
<path d="M52.916,89.368L60.916,89.368" style="fill:none;stroke:#000000;stroke-width:0.5" />
<path d="M52.916,148.5L60.916,148.5" style="fill:none;stroke:#000000;stroke-width:0.5" />
<path d="M56.916,49.943L60.916,49.943" style="fill:none;stroke:#000000;stroke-width:0.5" />
<path d="M56.916,69.655L60.916,69.655" style="fill:none;stroke:#000000;stroke-width:0.5" />
<path d="M56.916,109.08L60.916,109.08" style="fill:none;stroke:#000000;stroke-width:0.5" />
<path d="M56.916,128.79L60.916,128.79" style="fill:none;stroke:#000000;stroke-width:0.5" />
<path d="M56.916,168.22L60.916,168.22" style="fill:none;stroke:#000000;stroke-width:0.5" />
<path d="M60.916,30.23L60.916,174.58" style="fill:none;stroke:#000000;stroke-width:0.5" />
<path d="M90.829,30.23L90.829,174.58L120.83,174.58L120.83,30.23Z" style="fill:#F15A60" />
<path d="M212.22,30.23L212.22,71.363L242.22,71.363L242.22,30.23Z" style="fill:#F15A60" />
<path d="M333.61,30.23L333.61,66.785L363.61,66.785L363.61,30.23Z" style="fill:#F15A60" />
<path d="M360,174.58L360,174.58L380,174.58L380,174.58Z" style="fill:#F15A60" />
</g>
</svg>
